<?xml version="1.0" encoding="UTF-8"?>
<svg width="270px" height="270px" viewBox="0 0 270 270" version="1.1" xmlns="http://www.w3.org/2000/svg" xmlns:xlink="http://www.w3.org/1999/xlink">
    <!-- Generator: Sketch 62 (91390) - https://sketch.com -->
    <title>Circular 15</title>
    <desc>Created with Sketch.</desc>
    <g id="crise.cc/circular15" stroke="none" stroke-width="1" fill="none" fill-rule="evenodd">
        <g id="Circular-15" transform="translate(-548.000000, -253.000000)">
            <g id="Header">
                <g id="Circular-15" transform="translate(548.000000, 253.000000)">
                    <path d="M84.39201,33.31881 L84.36636,33.27102 C83.66247,31.9572 82.34865,31.80006 80.79561,32.63193 L77.76108,34.25679 L79.91109,38.27115 L82.96911,36.63279 C84.54645,35.78823 85.0446,34.53759 84.39201,33.31881" id="Fill-4" fill="#000000"></path>
                    <polygon id="Fill-5" fill="#000000" points="203.95989 43.88364 198.99783 46.89387 202.39146 49.4613"></polygon>
                    <path d="M85.33215,228.31929 L82.32921,226.69659 L80.18298,230.6691 L83.20968,232.30449 C84.77028,233.1477 86.07762,232.87635 86.7294,231.67053 L86.75478,231.62301 C87.45732,230.32269 86.86926,229.14954 85.33215,228.31929" id="Fill-6" fill="#000000"></path>
                    <polygon id="Fill-7" fill="#000000" points="206.01675 222.42222 201.06819 219.50433 202.69494 225.02448"></polygon>
                    <path d="M225.72162,193.68936 L225.67734,193.65885 C224.46207,192.81699 223.23114,193.27194 222.23646,194.70807 L220.29246,197.51391 L224.00415,200.08512 L225.96327,197.25741 C226.97361,195.79914 226.84833,194.46993 225.72162,193.68936" id="Fill-8" fill="#000000"></path>
                    <path d="M235.50507,200.66373 L228.66327,200.53413 L227.36241,202.41198 L232.0461,205.65657 L229.07664,209.94255 L213.61131,199.22868 L218.67759,191.916 C220.31541,189.55188 222.06663,188.34552 223.84647,188.04177 C225.35766,187.74801 226.87209,188.11062 228.39678,189.16686 L228.44079,189.19737 C230.80491,190.83519 231.50097,193.18122 230.98689,195.66981 L238.93353,195.71463 L235.50507,200.66373 Z M212.85504,226.48815 L209.70414,224.68887 L203.99175,229.16412 L205.0056,232.63767 L200.68938,236.01834 L195.30963,216.16281 L199.26621,213.06348 L217.25604,223.04106 L212.85504,226.48815 Z M172.98495,249.035013 L166.08348,231.5331 L170.93403,229.62042 L176.15934,242.87175 L184.63545,239.52969 L186.31134,243.780003 L172.98495,249.035013 Z M146.30031,254.838933 C140.97672,255.349233 137.3733,252.967833 136.81197,247.108563 L135.80433,236.59425 L141.07473,236.08935 L142.07211,246.496473 C142.33104,249.198633 143.81847,250.351803 145.9053,250.152273 C147.99213,249.952203 149.23872,248.590593 148.98735,245.968893 L147.97728,235.42785 L153.24795,234.92268 L154.24263,245.303343 C154.82205,251.349723 151.62444,254.329173 146.30031,254.838933 L146.30031,254.838933 Z M101.38392,214.63029 C91.10124,210.28086 81.85644,204.0444 73.90602,196.09398 C65.95533,188.14356 59.71887,178.89876 55.36971,168.61608 C51.53193,159.54219 49.31631,149.96448 48.75039,140.08032 L48.75066,140.08032 C48.72663,139.6602 48.70503,139.23954 48.68667,138.81807 C48.6675,138.37743 48.65022,137.93598 48.6378,137.49372 C48.63105,137.26044 48.62673,137.02689 48.62187,136.79307 C48.60972,136.19718 48.6,135.60129 48.6,135.00378 L48.6,135 C48.6,123.31467 50.87772,112.00491 55.36971,101.38419 C59.71887,91.10151 65.95533,81.85671 73.90602,73.90602 C81.85644,65.9556 91.10124,59.71887 101.38392,55.36971 C112.00464,50.87772 123.3144,48.6 135,48.6 C146.68506,48.6 157.99536,50.87772 168.61581,55.36971 C178.89849,59.71887 188.14356,65.9556 196.09371,73.90602 C204.0444,81.85671 210.28086,91.10151 214.63029,101.38419 C219.12201,112.00491 221.4,123.31467 221.4,135 C221.4,135.59994 221.39001,136.19826 221.37813,136.79604 C221.373,137.02797 221.36895,137.2599 221.36193,137.49129 C221.34951,137.93517 221.33223,138.37797 221.31306,138.8205 C221.2947,139.24035 221.27337,139.65993 221.24934,140.07843 C220.68369,149.9634 218.46807,159.54165 214.63029,168.61608 C210.28086,178.89876 204.0444,188.14356 196.09371,196.09398 C188.14329,204.0444 178.89849,210.28086 168.61581,214.63029 C157.99536,219.12228 146.68506,221.40027 135,221.40027 C123.3144,221.40027 112.00464,219.12228 101.38392,214.63029 L101.38392,214.63029 Z M112.74174,248.493123 C114.66333,248.889213 115.97985,248.227983 117.36279,247.113693 L120.64086,250.643943 C118.40931,252.681093 115.70283,253.961433 111.62286,253.119303 C106.35786,252.033093 102.951,247.131513 104.08608,241.62975 L104.09688,241.5771 C105.20496,236.20734 110.20671,232.84827 115.78734,233.99955 C119.55141,234.77634 121.64742,236.85561 122.8122,239.45598 L118.35531,241.63758 C117.5742,240.10398 116.53686,239.0121 114.77349,238.64814 C112.19337,238.1157 109.92645,239.92605 109.37241,242.61066 L109.36161,242.66358 C108.7911,245.427273 110.16243,247.960683 112.74174,248.493123 L112.74174,248.493123 Z M91.5192,233.8308 L91.49355,233.87805 C90.12654,236.40795 87.8715,237.35862 85.3416,237.1221 L86.1732,245.025243 L80.87661,242.16354 L80.25102,235.34955 L78.24114,234.26334 L75.5325,239.27643 L70.94547,236.79783 L79.88814,220.24548 L87.71517,224.47449 C90.24507,225.84123 91.63719,227.44881 92.13534,229.1841 C92.5938,230.65398 92.40021,232.19919 91.5192,233.8308 L91.5192,233.8308 Z M56.47671,225.80127 L52.58574,222.29046 L65.18799,208.32255 L69.07869,211.83309 L56.47671,225.80127 Z M48.12696,195.05286 C46.65141,192.87126 43.76484,192.58506 41.49414,194.12082 L41.44932,194.15079 C39.11193,195.73164 38.32542,198.50265 39.80124,200.68398 C40.90041,202.30938 42.30468,202.75434 44.07237,202.92147 L43.95573,207.73773 C40.93605,207.63864 38.10456,206.66637 35.77041,203.21577 C32.7591,198.7632 33.74109,192.87558 38.39373,189.72846 L38.43801,189.69849 C42.97941,186.62697 48.90564,187.71264 52.09731,192.43224 C54.25083,195.61581 54.29997,198.56691 53.31933,201.24207 L48.60513,199.69362 C49.11624,198.0504 49.13568,196.54407 48.12696,195.05286 L48.12696,195.05286 Z M36.31635,65.41074 C38.51874,62.22123 41.27382,61.09317 44.14716,61.03485 L44.41878,66.03147 C42.68754,66.15378 41.26572,66.68703 40.23351,68.18148 C38.72448,70.3674 39.51288,73.18431 41.78817,74.75571 L41.83272,74.78649 C44.1747,76.40325 47.0664,76.12731 48.5757,73.94139 C49.69998,72.31329 49.60386,70.83045 49.11327,69.10812 L53.68167,67.45356 C54.69498,70.3269 54.81864,73.34388 52.4313,76.80123 C49.35114,81.26244 43.45893,82.49715 38.79711,79.27821 L38.75256,79.2477 C34.20225,76.10571 33.05124,70.13952 36.31635,65.41074 L36.31635,65.41074 Z M56.81151,43.41978 L69.45561,57.56751 L65.51415,61.08993 L52.87032,46.94166 L56.81151,43.41978 Z M78.88455,28.48986 C81.44118,27.12042 83.5677,26.84286 85.30461,27.38772 C86.79636,27.81891 87.98922,28.84059 88.87185,30.48921 L88.8975,30.53673 C90.26694,33.09363 89.81334,35.51931 88.20846,37.5165 L95.3208,41.20929 L89.96886,44.07588 L83.88711,40.81509 L81.85644,41.90238 L84.5694,46.96785 L79.93404,49.4505 L70.97625,32.72562 L78.88455,28.48986 Z M111.52458,16.55019 C115.31889,15.75801 118.0926,16.84017 120.21426,18.7785 L116.96643,22.58577 C115.62804,21.48066 114.22998,20.88639 112.4523,21.25764 C109.85193,21.80088 108.48114,24.38559 109.04652,27.09207 L109.05759,27.14499 C109.63944,29.93112 111.92445,31.72473 114.52509,31.18122 C116.4618,30.77703 117.41436,29.63655 118.24623,28.0503 L122.69637,30.00105 C121.44951,32.78097 119.45934,35.05221 115.34643,35.91108 C110.03985,37.01943 104.92011,33.85206 103.76208,28.30653 L103.75074,28.25334 C102.62025,22.84065 105.8994,17.72523 111.52458,16.55019 L111.52458,16.55019 Z M135.79434,24.90831 L136.72692,14.29677 L142.04619,14.76414 L141.12306,25.26795 C140.8833,27.99468 142.14663,29.41191 144.25236,29.59713 C146.35863,29.78208 147.84471,28.66131 148.07718,26.01504 L149.01246,15.3765 L154.33173,15.84414 L153.41076,26.32068 C152.87454,32.42295 149.15637,34.79004 143.7831,34.31754 C138.40983,33.84531 135.27459,30.82158 135.79434,24.90831 L135.79434,24.90831 Z M171.81477,20.19708 L176.72472,22.0806 L171.5796,35.4942 L180.15939,38.78469 L178.50888,43.08714 L165.01941,37.91313 L171.81477,20.19708 Z M205.73217,37.40742 L209.77461,40.46544 L204.68781,60.57936 L200.19123,57.17763 L201.13299,53.64144 L195.29613,49.22613 L192.17115,51.111 L187.76097,47.77461 L205.73217,37.40742 Z M227.78388,57.86559 L233.04618,65.13183 C234.74718,67.48056 235.30878,69.55011 235.0026,71.34507 C234.77634,72.88083 233.92449,74.20032 232.41006,75.2976 L232.36605,75.32946 C230.01732,77.03073 227.55249,76.90815 225.35712,75.58623 L222.65577,83.13138 L219.09474,78.21387 L221.50665,71.74845 L220.15557,69.88275 L215.50185,73.25289 L212.41737,68.99418 L227.78388,57.86559 Z M269.90523,140.07897 C269.93331,139.32432 269.95329,138.56778 269.96868,137.81016 C269.97219,137.6406 269.97543,137.47077 269.9784,137.30121 C269.99136,136.53549 270,135.76869 270,135 C270,60.44166 209.55834,0 135,0 C60.44166,0 8.1e-05,60.44166 8.1e-05,135 C8.1e-05,135.76977 0.008991,136.53765 0.021681,137.30445 C0.024651,137.47185 0.027621,137.63925 0.031401,137.80665 C1.525581,211.06899 61.37937,270.000243 135,270.000243 C207.85734,270.000243 267.23412,212.28453 269.90523,140.08032 L269.90523,140.07897 Z" id="Fill-9" fill="#000000"></path>
                    <path d="M128.537959,174.4 C129.86658,174.4 130.828082,174.104074 131.422466,173.512222 C132.016849,172.92037 132.31404,171.962963 132.31404,170.64 L132.31404,170.64 L132.31404,158.002222 C132.31404,156.679259 132.016849,155.721852 131.422466,155.13 C130.828082,154.538148 129.86658,154.242222 128.537959,154.242222 L128.537959,154.242222 L118.468411,154.242222 L118.468411,102.96 C118.468411,101.637037 118.17122,100.67963 117.576837,100.087778 C116.982453,99.4959259 116.020951,99.2 114.692331,99.2 L114.692331,99.2 L84.2739032,99.2 C82.9452822,99.2 81.9837802,99.4959259 81.3893972,100.087778 C80.7950141,100.67963 80.4978226,101.637037 80.4978226,102.96 L80.4978226,102.96 L80.4978226,115.597778 C80.4978226,116.920741 80.7950141,117.878148 81.3893972,118.47 C81.9837802,119.061852 82.9452822,119.357778 84.2739032,119.357778 L84.2739032,119.357778 L93.923887,119.357778 L93.923887,154.242222 L82.1760806,154.242222 C80.8474597,154.242222 79.8859577,154.538148 79.2915746,155.13 C78.6971915,155.721852 78.4,156.679259 78.4,158.002222 L78.4,158.002222 L78.4,170.64 C78.4,171.962963 78.6971915,172.92037 79.2915746,173.512222 C79.8859577,174.104074 80.8474597,174.4 82.1760806,174.4 L82.1760806,174.4 L128.537959,174.4 Z M175.533656,174.4 C181.830993,174.4 186.816384,172.833333 190.48983,169.7 C194.163277,166.566667 196,162.354074 196,157.062222 L196,157.062222 L196,142.544444 C196,137.043704 194.355695,132.900741 191.067086,130.115556 C187.778477,127.33037 183.300371,125.937778 177.632768,125.937778 L177.632768,125.937778 L163.253849,125.937778 L163.253849,119.148889 L188.443196,119.148889 C189.772634,119.148889 190.734727,118.852963 191.329475,118.261111 C191.924224,117.669259 192.221598,116.711852 192.221598,115.388889 L192.221598,115.388889 L192.221598,102.96 C192.221598,101.637037 191.924224,100.67963 191.329475,100.087778 C190.734727,99.4959259 189.772634,99.2 188.443196,99.2 L188.443196,99.2 L143.207328,99.2 C141.87789,99.2 140.915797,99.4959259 140.321048,100.087778 C139.7263,100.67963 139.428926,101.637037 139.428926,102.96 L139.428926,102.96 L139.428926,142.022222 C139.428926,143.345185 139.7263,144.302593 140.321048,144.894444 C140.915797,145.486296 141.87789,145.782222 143.207328,145.782222 L143.207328,145.782222 L169.236319,145.782222 C170.075964,145.782222 170.758176,145.973704 171.282954,146.356667 C171.807732,146.73963 172.070121,147.348889 172.070121,148.184444 L172.070121,148.184444 L172.070121,152.257778 C172.070121,153.093333 171.807732,153.702593 171.282954,154.085556 C170.758176,154.468519 170.075964,154.66 169.236319,154.66 L169.236319,154.66 L142.157772,154.66 C140.828334,154.66 139.866241,154.955926 139.271492,155.547778 C138.676744,156.13963 138.37937,157.097037 138.37937,158.42 L138.37937,158.42 L138.37937,170.64 C138.37937,171.962963 138.676744,172.92037 139.271492,173.512222 C139.866241,174.104074 140.828334,174.4 142.157772,174.4 L142.157772,174.4 L175.533656,174.4 Z" id="15" fill="#000000" fill-rule="nonzero"></path>
                    <path d="M229.00266,71.2395 L229.04667,71.20764 C230.25384,70.33338 230.23278,69.00984 229.19949,67.58316 L227.18016,64.79514 L223.4925,67.46571 L225.52722,70.27587 C226.57644,71.72442 227.88297,72.05004 229.00266,71.2395" id="Fill-10" fill="#000000"></path>
                    <polygon id="Fill-11" fill="#EDEDEE" points="29.1168 124.92819 33.75216 125.94204 35.15211 135.38124"></polygon>
                    <polygon id="Fill-12" fill="#D1D3D4" points="29.1168 145.83456 34.36776 144.41031 35.15211 135.38124"></polygon>
                    <polygon id="Fill-13" fill="#808285" points="23.239143 145.83456 23.239143 149.04405 29.1168 145.83456"></polygon>
                    <polygon id="Fill-14" fill="#B9BABC" points="23.239143 122.11857 23.239143 124.92819 29.1168 124.92819"></polygon>
                    <polygon id="Fill-15" fill="#F6F6F6" points="30.16116 119.06784 23.239197 121.97682 23.239197 122.11857 29.1168 124.92819 33.75216 125.94204"></polygon>
                    <polygon id="Fill-16" fill="#C0C2C4" points="35.15211 135.38124 40.83183 135.38124 33.75216 125.94204"></polygon>
                    <polygon id="Fill-17" fill="#F1F2F2" points="34.36776 144.41004 40.83156 135.38124 35.15211 135.38124"></polygon>
                    <polygon id="Fill-18" fill="#B3B5B8" points="29.1168 145.83456 23.239143 149.04405 23.239143 149.18229 29.85336 151.38711 34.36803 144.41031"></polygon>
                    <polygon id="Fill-19" fill="#B3B5B8" points="40.83183 135.38124 39.7629 142.24842 34.36803 144.41004"></polygon>
                    <polygon id="Fill-20" fill="#888A8C" points="29.85336 151.38711 36.01044 147.4821 34.36776 144.41004"></polygon>
                    <polygon id="Fill-21" fill="#D3D5D6" points="39.76263 142.24815 36.01044 147.4821 34.36776 144.41004"></polygon>
                    <polygon id="Fill-22" fill="#D3D5D6" points="40.83183 135.38124 39.7629 128.22624 38.14857 131.80374"></polygon>
                    <polygon id="Fill-23" fill="#EDEDEE" points="33.75216 125.94204 39.76263 128.22624 38.14857 131.80374"></polygon>
                    <polygon id="Fill-24" fill="#C7C8CA" points="30.16116 119.06784 36.01044 122.50467 33.75216 125.94204"></polygon>
                    <polygon id="Fill-25" fill="#E0E1E2" points="39.76263 128.22624 36.01044 122.50494 33.75216 125.94204"></polygon>
                    <polygon id="Fill-26" fill="#FFFFFF" points="23.239143 117.40221 23.239143 121.97682 30.16116 119.06784"></polygon>
                    <polygon id="Fill-27" fill="#F1F2F2" points="29.1168 124.92819 23.239143 124.92819 17.361513 124.92819 11.326203 135.38124 17.361513 145.83456 29.1168 145.83456 35.15211 135.38124"></polygon>
                    <polygon id="Fill-28" fill="#EDEDEE" points="17.361351 124.92819 12.725991 125.94204 11.326041 135.38124"></polygon>
                    <polygon id="Fill-29" fill="#D1D3D4" points="17.361351 145.83456 12.110391 144.41031 11.326041 135.38124"></polygon>
                    <polygon id="Fill-30" fill="#808285" points="23.239143 145.83456 23.239143 149.04405 17.361513 145.83456"></polygon>
                    <polygon id="Fill-31" fill="#DBDBDC" points="23.239143 122.11857 23.239143 124.92819 17.361513 124.92819"></polygon>
                    <polygon id="Fill-32" fill="#F6F6F6" points="16.317099 119.06784 23.239089 121.97682 23.239089 122.11857 17.361459 124.92819 12.726099 125.94204"></polygon>
                    <polygon id="Fill-33" fill="#C0C2C4" points="11.326176 135.38124 5.646456 135.38124 12.726126 125.94204"></polygon>
                    <polygon id="Fill-34" fill="#F1F2F2" points="12.110472 144.41004 5.646672 135.38124 11.326122 135.38124"></polygon>
                    <polygon id="Fill-35" fill="#B3B5B8" points="17.361486 145.83456 23.239116 149.04405 23.239116 149.18229 16.624926 151.38711 12.110256 144.41031"></polygon>
                    <polygon id="Fill-36" fill="#B3B5B8" points="5.646537 135.38124 6.715467 142.24842 12.110337 144.41004"></polygon>
                    <polygon id="Fill-37" fill="#888A8C" points="16.624926 151.38711 10.467846 147.4821 12.110526 144.41004"></polygon>
                    <polygon id="Fill-38" fill="#D3D5D6" points="6.715602 142.24815 10.467792 147.4821 12.110472 144.41004"></polygon>
                    <polygon id="Fill-39" fill="#D3D5D6" points="5.646537 135.38124 6.715467 128.22624 8.329797 131.80374"></polygon>
                    <polygon id="Fill-40" fill="#EDEDEE" points="12.726018 125.94204 6.715548 128.22624 8.329608 131.80374"></polygon>
                    <polygon id="Fill-41" fill="#C7C8CA" points="16.317099 119.06784 10.467819 122.50467 12.726099 125.94204"></polygon>
                    <polygon id="Fill-42" fill="#E0E1E2" points="6.715602 128.22624 10.467792 122.50494 12.726072 125.94204"></polygon>
                    <polygon id="Fill-43" fill="#FFFFFF" points="23.239143 117.40221 23.239143 121.97682 16.317153 119.06784"></polygon>
                    <polygon id="Fill-44" fill="#95979A" points="16.624926 151.38711 23.239116 152.59779 23.239116 149.04378"></polygon>
                    <polygon id="Fill-45" fill="#E4E5E6" points="29.85336 151.38711 23.239143 152.59779 23.239143 149.04378"></polygon>
                    <polygon id="Fill-46" fill="#EDEDEE" points="250.73982 124.92819 255.37518 125.94204 256.77513 135.38124"></polygon>
                    <polygon id="Fill-47" fill="#D1D3D4" points="250.73982 145.83456 255.99051 144.41031 256.77513 135.38124"></polygon>
                    <polygon id="Fill-48" fill="#808285" points="244.86192 145.83456 244.86192 149.04405 250.73982 145.83456"></polygon>
                    <polygon id="Fill-49" fill="#B9BABC" points="244.86192 122.11857 244.86192 124.92819 250.73982 124.92819"></polygon>
                    <polygon id="Fill-50" fill="#F6F6F6" points="251.78391 119.06784 244.86192 121.97682 244.86192 122.11857 250.73982 124.92819 255.37518 125.94204"></polygon>
                    <polygon id="Fill-51" fill="#C0C2C4" points="256.77513 135.38124 262.45458 135.38124 255.37518 125.94204"></polygon>
                    <polygon id="Fill-52" fill="#F1F2F2" points="255.99051 144.41004 262.45431 135.38124 256.77486 135.38124"></polygon>
                    <polygon id="Fill-53" fill="#B3B5B8" points="250.73982 145.83456 244.86192 149.04405 244.86192 149.18229 251.47638 151.38711 255.99078 144.41031"></polygon>
                    <polygon id="Fill-54" fill="#B3B5B8" points="262.45458 135.38124 261.38565 142.24842 255.99078 144.41004"></polygon>
                    <polygon id="Fill-55" fill="#888A8C" points="251.47638 151.38711 257.63346 147.4821 255.99078 144.41004"></polygon>
                    <polygon id="Fill-56" fill="#D3D5D6" points="261.38565 142.24815 257.63346 147.4821 255.99078 144.41004"></polygon>
                    <polygon id="Fill-57" fill="#D3D5D6" points="262.45458 135.38124 261.38565 128.22624 259.77132 131.80374"></polygon>
                    <polygon id="Fill-58" fill="#EDEDEE" points="255.37518 125.94204 261.38565 128.22624 259.77132 131.80374"></polygon>
                    <polygon id="Fill-59" fill="#C7C8CA" points="251.78391 119.06784 257.63319 122.50467 255.37518 125.94204"></polygon>
                    <polygon id="Fill-60" fill="#E0E1E2" points="261.38565 128.22624 257.63346 122.50494 255.37518 125.94204"></polygon>
                    <polygon id="Fill-61" fill="#FFFFFF" points="244.86192 117.40221 244.86192 121.97682 251.78391 119.06784"></polygon>
                    <polygon id="Fill-62" fill="#F1F2F2" points="250.73982 124.92819 244.86192 124.92819 238.98429 124.92819 232.94898 135.38124 238.98429 145.83456 250.73982 145.83456 256.77513 135.38124"></polygon>
                    <polygon id="Fill-63" fill="#EDEDEE" points="238.98429 124.92819 234.34893 125.94204 232.94898 135.38124"></polygon>
                    <polygon id="Fill-64" fill="#D1D3D4" points="238.98429 145.83456 233.73333 144.41031 232.94898 135.38124"></polygon>
                    <polygon id="Fill-65" fill="#808285" points="244.86192 145.83456 244.86192 149.04405 238.98402 145.83456"></polygon>
                    <polygon id="Fill-66" fill="#DBDBDC" points="244.86192 122.11857 244.86192 124.92819 238.98402 124.92819"></polygon>
                    <polygon id="Fill-67" fill="#F6F6F6" points="237.93993 119.06784 244.86219 121.97682 244.86219 122.11857 238.98429 124.92819 234.34893 125.94204"></polygon>
                    <polygon id="Fill-68" fill="#C0C2C4" points="232.94898 135.38124 227.26926 135.38124 234.34893 125.94204"></polygon>
                    <polygon id="Fill-69" fill="#F1F2F2" points="233.73333 144.41004 227.26953 135.38124 232.94925 135.38124"></polygon>
                    <polygon id="Fill-70" fill="#B3B5B8" points="238.98429 145.83456 244.86219 149.04405 244.86219 149.18229 238.24773 151.38711 233.73333 144.41031"></polygon>
                    <polygon id="Fill-71" fill="#B3B5B8" points="227.26926 135.38124 228.33846 142.24842 233.73306 144.41004"></polygon>
                    <polygon id="Fill-72" fill="#888A8C" points="238.24773 151.38711 232.09092 147.4821 233.73306 144.41004"></polygon>
                    <polygon id="Fill-73" fill="#D3D5D6" points="228.33846 142.24815 232.09065 147.4821 233.73306 144.41004"></polygon>
                    <polygon id="Fill-74" fill="#D3D5D6" points="227.26926 135.38124 228.33846 128.22624 229.95252 131.80374"></polygon>
                    <polygon id="Fill-75" fill="#EDEDEE" points="234.34893 125.94204 228.33846 128.22624 229.95252 131.80374"></polygon>
                    <polygon id="Fill-76" fill="#C7C8CA" points="237.93993 119.06784 232.09092 122.50467 234.34893 125.94204"></polygon>
                    <polygon id="Fill-77" fill="#E0E1E2" points="228.33846 128.22624 232.09065 122.50494 234.34893 125.94204"></polygon>
                    <polygon id="Fill-78" fill="#FFFFFF" points="244.86192 117.40221 244.86192 121.97682 237.93966 119.06784"></polygon>
                    <polygon id="Fill-79" fill="#95979A" points="238.24773 151.38711 244.86192 152.59779 244.86192 149.04378"></polygon>
                    <polygon id="Fill-80" fill="#E4E5E6" points="251.47638 151.38711 244.86219 152.59779 244.86219 149.04378"></polygon>
                </g>
            </g>
        </g>
    </g>
</svg>