<?xml version="1.0" encoding="UTF-8"?>
<svg width="280px" height="280px" viewBox="0 0 280 280" version="1.1" xmlns="http://www.w3.org/2000/svg" xmlns:xlink="http://www.w3.org/1999/xlink">
    <!-- Generator: Sketch 62 (91390) - https://sketch.com -->
    <title>circular 15-logo</title>
    <desc>Created with Sketch.</desc>
    <g id="Circular-15" stroke="none" stroke-width="1" fill="none" fill-rule="evenodd">
        <g transform="translate(-268.000000, -77.000000)" id="Header">
            <g>
                <g id="circular-15-logo" transform="translate(268.000000, 77.000000)">
                    <path d="M140,254.8 C109.3358,254.8 80.507,242.85884 58.82408,221.17592 C37.14116,199.493 25.2,170.6642 25.2,140 C25.2,109.3358 37.14116,80.507 58.82408,58.82408 C80.507,37.14116 109.3358,25.2 140,25.2 C170.6642,25.2 199.493,37.14116 221.17592,58.82408 C242.85884,80.507 254.8,109.3358 254.8,140 C254.8,170.6642 242.85884,199.493 221.17592,221.17592 C199.493,242.85884 170.6642,254.8 140,254.8" id="Fill-1" fill="#FFFFFF"></path>
                    <path d="M140,0 C62.68024,0 0,62.68024 0,140 C0,217.32004 62.68024,280 140,280 C217.31976,280 280,217.32004 280,140 C280,62.68024 217.31976,0 140,0 M140,50.4 C152.11812,50.4 163.84676,52.76236 174.86084,57.42044 C185.52436,61.93096 195.11184,68.3984 203.35672,76.64356 C211.60188,84.88844 218.06904,94.47564 222.57956,105.13916 C227.23792,116.15324 229.6,127.88216 229.6,140 C229.6,152.11812 227.23792,163.84704 222.57956,174.86112 C218.06904,185.52464 211.60188,195.11184 203.35672,203.35672 C195.11184,211.60188 185.52436,218.06904 174.86084,222.57956 C163.84676,227.23792 152.11812,229.6 140,229.6 C127.88188,229.6 116.15296,227.23792 105.13916,222.57956 C94.47564,218.06904 84.88816,211.60188 76.64328,203.35672 C68.39812,195.11184 61.93096,185.52464 57.42044,174.86112 C52.76208,163.84704 50.4,152.11812 50.4,140 C50.4,127.88216 52.76208,116.15324 57.42044,105.13916 C61.93096,94.47564 68.39812,84.88844 76.64328,76.64356 C84.88816,68.3984 94.47564,61.93096 105.13916,57.42044 C116.15296,52.76236 127.88188,50.4 140,50.4" id="Fill-2" fill="#000000"></path>
                    <polygon id="Fill-3" fill="#000000" points="104.70404 185.07524 104.70404 117.16992 90.91488 127.57668 81.6788 111.44616 106.91548 92.974 125.12752 92.974 125.12752 185.07524"></polygon>
                    <path d="M191.6012,154.50484 C191.6012,159.96848 190.84072,164.71644 189.32452,168.749 C187.80636,172.78184 185.72484,176.16396 183.08052,178.89592 C180.43396,181.6276 177.33408,183.66628 173.7792,185.01 C170.22236,186.35344 166.44964,187.02628 162.46188,187.02628 C155.43696,187.02628 149.32316,185.07524 144.11964,181.1726 C138.91612,177.26996 135.4892,171.37316 133.8428,163.4808 L151.66452,157.88696 C152.35752,160.92384 153.5506,163.5256 155.24208,165.69224 C156.933,167.86084 159.16488,168.94444 161.94164,168.94444 C165.14876,168.94444 167.55564,167.6234 169.16116,164.97684 C170.76472,162.33224 171.56776,159.05792 171.56776,155.155 C171.56776,150.38688 170.24476,146.87456 167.60016,144.61804 C164.95388,142.36432 161.76664,141.23592 158.03872,141.23592 C155.3496,141.23592 152.25,141.64864 148.73768,142.47156 C145.22536,143.297 142.21088,144.228 139.69648,145.26876 L141.64808,92.974 L188.349,92.974 L188.349,111.05584 L159.07948,111.05584 L158.42904,126.92652 C159.4698,126.49336 160.66092,126.14588 162.00632,125.88576 C163.35004,125.62536 164.49832,125.49572 165.45368,125.49572 C169.61644,125.49572 173.3242,126.19068 176.57612,127.57696 C179.82832,128.9652 182.56,130.91652 184.77144,133.43064 C186.98288,135.94728 188.67408,138.98192 189.84504,142.5368 C191.01572,146.09392 191.6012,150.08168 191.6012,154.50484" id="Fill-4" fill="#000000"></path>
                    <path d="M54.37404,79.64628 C56.8498,76.06116 56.72156,72.93244 55.671,69.95212 L50.9334,71.66796 C51.44216,73.45408 51.54184,74.99184 50.37564,76.68024 C48.81044,78.94712 45.81164,79.23328 43.38292,77.55608 L43.33644,77.52416 C40.97716,75.89484 40.15956,72.97304 41.72504,70.70644 C42.7952,69.15664 44.27024,68.60392 46.0656,68.47736 L45.78392,63.2954 C42.80444,63.3556 39.94704,64.52516 37.6628,67.8328 C34.27648,72.73644 35.46956,78.9236 40.18812,82.18224 L40.2346,82.21416 C45.0688,85.5526 51.17924,84.27244 54.37404,79.64628 Z" id="Fill-5" fill="#FFFFFF"></path>
                    <polygon id="Fill-6" fill="#FFFFFF" points="67.94088 63.35252 72.02804 59.7002 58.91676 45.0282 54.82932 48.6808"></polygon>
                    <path d="M82.89484,51.282 L87.70188,48.7074 L84.88844,43.45432 L86.9946,42.3262 L93.30216,45.70804 L98.8526,42.73528 L91.47628,38.90544 C93.14116,36.834 93.61128,34.3182 92.19112,31.66688 L92.1648,31.61732 C91.24892,29.90736 90.01188,28.84812 88.46516,28.40096 C86.66336,27.83536 84.45808,28.12376 81.80676,29.54364 L73.60472,33.93656 L82.89484,51.282 Z M82.87104,39.68776 L80.64168,35.52472 L83.7886,33.8394 C85.39916,32.97672 86.76192,33.13968 87.49188,34.50244 L87.51848,34.552 C88.19524,35.81592 87.67836,37.11316 86.04288,37.989 L82.87104,39.68776 Z" id="Fill-7" fill="#FFFFFF"></path>
                    <path d="M119.61852,37.24196 C123.88348,36.35156 125.94764,33.99676 127.24096,31.1136 L122.626,29.0906 C121.76332,30.73532 120.77548,31.91776 118.76676,32.3372 C116.07036,32.90028 113.70044,31.04024 113.09732,28.15092 L113.08584,28.09604 C112.4998,25.28932 113.92164,22.60916 116.61832,22.04608 C118.46184,21.66108 119.9114,22.27736 121.29936,23.4234 L124.66748,19.4754 C122.46724,17.465 119.59108,16.34276 115.65624,17.16428 C109.823,18.38228 106.42212,23.68688 107.59392,29.30004 L107.60568,29.3552 C108.80632,35.10584 114.1154,38.39108 119.61852,37.24196 Z" id="Fill-8" fill="#FFFFFF"></path>
                    <path d="M149.10868,35.58828 C154.68096,36.078 158.53684,33.62324 159.09292,27.29468 L160.04744,16.43012 L154.53088,15.94544 L153.5618,26.978 C153.32072,29.72228 151.77932,30.88484 149.59532,30.69304 C147.41104,30.50096 146.1012,29.03152 146.34956,26.20324 L147.3066,15.31068 L141.79032,14.826 L140.82348,25.83084 C140.28448,31.96312 143.5364,35.09884 149.10868,35.58828 Z" id="Fill-9" fill="#FFFFFF"></path>
                    <polygon id="Fill-10" fill="#FFFFFF" points="171.13152 39.3176 185.11948 44.68436 186.8314 40.22284 177.93468 36.80936 183.2712 22.90008 178.17996 20.94652"></polygon>
                    <path d="M194.71508,49.54404 L199.2886,53.00344 L202.52932,51.04904 L208.58236,55.6276 L207.606,59.29476 L212.26884,62.82192 L217.5432,41.96332 L213.35104,38.79232 L194.71508,49.54404 Z M206.36756,48.6304 L211.51312,45.50868 L209.88744,51.29264 L206.36756,48.6304 Z" id="Fill-11" fill="#FFFFFF"></path>
                    <path d="M220.28496,71.5498 L223.48396,75.96624 L228.31004,72.47044 L229.71172,74.40552 L227.2102,81.11124 L230.90396,86.2106 L233.70508,78.38544 C235.98176,79.75604 238.53816,79.88288 240.97388,78.1186 L241.01952,78.08556 C242.59032,76.94792 243.47344,75.57928 243.7078,73.98636 C244.0256,72.12492 243.44292,69.97872 241.67864,67.54272 L236.22088,60.00736 L220.28496,71.5498 Z M231.77056,69.96416 L235.59508,67.19412 L237.6892,70.0854 C238.76076,71.56492 238.78316,72.9372 237.531,73.84412 L237.48536,73.87716 C236.32448,74.718 234.96928,74.3806 233.88092,72.87812 L231.77056,69.96416 Z" id="Fill-12" fill="#FFFFFF"></path>
                    <path d="M37.09608,210.74228 C39.51668,214.32068 42.45332,215.32896 45.58484,215.43172 L45.7058,210.4368 C43.87236,210.26376 42.41608,209.80204 41.27592,208.11672 C39.74572,205.85432 40.56108,202.98068 42.98504,201.341 L43.03124,201.30992 C45.38604,199.717 48.3798,200.0138 49.91028,202.2762 C50.95664,203.82292 50.9362,205.38448 50.40644,207.08884 L55.29524,208.69464 C56.31248,205.9204 56.26068,202.85944 54.02768,199.55824 C50.71696,194.66384 44.57152,193.53796 39.86192,196.7238 L39.81572,196.75516 C34.99076,200.01884 33.97268,206.12508 37.09608,210.74228 Z" id="Fill-13" fill="#FFFFFF"></path>
                    <polygon id="Fill-14" fill="#FFFFFF" points="54.53308 230.52372 58.56816 234.16456 71.63856 219.6796 67.60348 216.03848"></polygon>
                    <path d="M73.5728,245.56812 L78.33,248.13824 L81.13868,242.93976 L83.223,244.06592 L83.87204,251.13256 L89.3648,254.100196 L88.5024,245.9044 C91.126,246.14968 93.46428,245.1638 94.88192,242.53992 L94.90852,242.49092 C95.82244,240.79888 96.02292,239.19644 95.54748,237.6724 C95.03088,235.87284 93.5872,234.20572 90.9636,232.78808 L82.84668,228.403 L73.5728,245.56812 Z M83.15244,239.2124 L85.37816,235.09276 L88.4926,236.77528 C90.08636,237.63656 90.6962,238.85316 89.96764,240.20164 L89.94104,240.25064 C89.2654,241.5014 87.90964,241.78252 86.29124,240.90836 L83.15244,239.2124 Z" id="Fill-15" fill="#FFFFFF"></path>
                    <path d="M115.7562,262.495128 C119.987,263.368448 122.794,262.041024 125.1082,259.928928 L121.709,256.26748 C120.27512,257.422956 118.90984,258.10876 116.91708,257.697468 C114.24196,257.145308 112.82068,254.518236 113.41232,251.65196 L113.42352,251.59764 C113.99808,248.81332 116.34924,246.93648 119.02436,247.48864 C120.85332,247.86608 121.92852,248.99868 122.73856,250.58908 L127.36052,248.32696 C126.15288,245.63028 123.97952,243.474 120.07632,242.66844 C114.28928,241.47396 109.10228,244.95688 107.95288,250.52524 L107.94168,250.57984 C106.764,256.284784 110.29676,261.368268 115.7562,262.495128 Z" id="Fill-16" fill="#FFFFFF"></path>
                    <path d="M151.71912,264.27842 C157.24044,263.749696 160.55648,260.660204 159.95588,254.389856 L158.9252,243.62492 L153.45932,244.14824 L154.50624,255.07972 C154.76664,257.798744 153.47388,259.210504 151.30976,259.417732 C149.14564,259.624988 147.60312,258.428716 147.3346,255.626476 L146.30112,244.83368 L140.83524,245.357 L141.87964,256.260872 C142.46148,262.337012 146.1978,264.807144 151.71912,264.27842 Z" id="Fill-17" fill="#FFFFFF"></path>
                    <polygon id="Fill-18" fill="#FFFFFF" points="179.3918 258.258504 193.21204 252.80962 191.47436 248.40172 182.68432 251.86728 177.26604 238.1246 172.23556 240.10812"></polygon>
                    <path d="M208.12232,244.76004 L212.5984,241.25388 L211.54728,237.65168 L217.47152,233.01124 L220.73884,234.87772 L225.30284,231.30268 L206.64756,220.95528 L202.54444,224.16912 L208.12232,244.76004 Z M210.20272,233.359 L208.516,227.63468 L213.64756,230.66064 L210.20272,233.359 Z" id="Fill-19" fill="#FFFFFF"></path>
                    <path d="M237.56096,217.71848 L240.64012,213.27376 L235.78268,209.909 L237.132,207.9616 L244.22692,208.09572 L247.78236,202.9636 L239.5414,202.91712 C240.07424,200.33664 239.3524,197.90372 236.90072,196.20552 L236.85508,196.17388 C235.2742,195.07852 233.70368,194.70276 232.13652,195.00712 C230.29076,195.32212 228.47468,196.57316 226.77648,199.02484 L221.52284,206.60836 L237.56096,217.71848 Z M232.30032,207.49652 L228.45116,204.83008 L230.46688,201.92032 C231.4984,200.431 232.77492,199.95892 234.03492,200.83196 L234.08084,200.8636 C235.24928,201.67308 235.3792,203.0518 234.33172,204.5638 L232.30032,207.49652 Z" id="Fill-20" fill="#FFFFFF"></path>
                    <polygon id="Fill-21" fill="#EDEDEE" points="260.02648 129.55516 264.83324 130.60656 266.28504 140.39536"></polygon>
                    <polygon id="Fill-22" fill="#D1D3D4" points="260.02648 151.23584 265.47192 149.75884 266.28504 140.39536"></polygon>
                    <polygon id="Fill-23" fill="#808285" points="253.93088 151.23584 253.93088 154.5642 260.0262 151.23584"></polygon>
                    <polygon id="Fill-24" fill="#B9BABC" points="253.93088 126.64148 253.93088 129.55516 260.0262 129.55516"></polygon>
                    <polygon id="Fill-25" fill="#F6F6F6" points="261.10952 123.47776 253.93116 126.49448 253.93116 126.64148 260.02648 129.55516 264.83352 130.60656"></polygon>
                    <polygon id="Fill-26" fill="#C0C2C4" points="266.28504 140.39536 272.17512 140.39536 264.83324 130.60656"></polygon>
                    <polygon id="Fill-27" fill="#F1F2F2" points="265.47192 149.75884 272.17512 140.39564 266.28504 140.39564"></polygon>
                    <polygon id="Fill-28" fill="#B3B5B8" points="260.0262 151.23584 253.93088 154.5642 253.93088 154.70756 260.79004 156.99404 265.47164 149.75884"></polygon>
                    <polygon id="Fill-29" fill="#B3B5B8" points="272.17512 140.39536 271.0666 147.51688 265.47192 149.75856"></polygon>
                    <polygon id="Fill-30" fill="#888A8C" points="260.79032 156.99404 267.17516 152.9444 265.47192 149.75856"></polygon>
                    <polygon id="Fill-31" fill="#D3D5D6" points="271.0666 147.51688 267.17544 152.94468 265.47192 149.75884"></polygon>
                    <polygon id="Fill-32" fill="#D3D5D6" points="272.17512 140.39536 271.0666 132.97536 269.39248 136.68536"></polygon>
                    <polygon id="Fill-33" fill="#EDEDEE" points="264.83324 130.60656 271.06632 132.97536 269.39248 136.68536"></polygon>
                    <polygon id="Fill-34" fill="#C7C8CA" points="261.10952 123.47776 267.17544 127.04188 264.83352 130.60656"></polygon>
                    <polygon id="Fill-35" fill="#E0E1E2" points="271.0666 132.97536 267.17544 127.04216 264.83352 130.60656"></polygon>
                    <polygon id="Fill-36" fill="#FFFFFF" points="253.93088 121.75044 253.93088 126.49448 261.10924 123.47776"></polygon>
                    <polygon id="Fill-37" fill="#F1F2F2" points="260.0262 129.55516 253.93088 129.55516 247.83528 129.55516 241.57672 140.39536 247.83528 151.23584 260.0262 151.23584 266.28504 140.39536"></polygon>
                    <polygon id="Fill-38" fill="#EDEDEE" points="247.83556 129.55516 243.02852 130.60656 241.57672 140.39536"></polygon>
                    <polygon id="Fill-39" fill="#D1D3D4" points="247.83556 151.23584 242.39012 149.75884 241.57672 140.39536"></polygon>
                    <polygon id="Fill-40" fill="#808285" points="253.93088 151.23584 253.93088 154.5642 247.83528 151.23584"></polygon>
                    <polygon id="Fill-41" fill="#DBDBDC" points="253.93088 126.64148 253.93088 129.55516 247.83528 129.55516"></polygon>
                    <polygon id="Fill-42" fill="#F6F6F6" points="246.75252 123.47776 253.93088 126.49448 253.93088 126.64148 247.83556 129.55516 243.02852 130.60656"></polygon>
                    <polygon id="Fill-43" fill="#C0C2C4" points="241.57672 140.39536 235.68664 140.39536 243.02852 130.60656"></polygon>
                    <polygon id="Fill-44" fill="#F1F2F2" points="242.39012 149.75884 235.68692 140.39564 241.57672 140.39564"></polygon>
                    <polygon id="Fill-45" fill="#B3B5B8" points="247.83556 151.23584 253.93116 154.5642 253.93116 154.70756 247.07172 156.99404 242.39012 149.75884"></polygon>
                    <polygon id="Fill-46" fill="#B3B5B8" points="235.68692 140.39536 236.79544 147.51688 242.39012 149.75856"></polygon>
                    <polygon id="Fill-47" fill="#888A8C" points="247.07172 156.99404 240.68688 152.9444 242.39012 149.75856"></polygon>
                    <polygon id="Fill-48" fill="#D3D5D6" points="236.79544 147.51688 240.6866 152.94468 242.39012 149.75884"></polygon>
                    <polygon id="Fill-49" fill="#D3D5D6" points="235.68692 140.39536 236.79544 132.97536 238.46956 136.68536"></polygon>
                    <polygon id="Fill-50" fill="#EDEDEE" points="243.02852 130.60656 236.79544 132.97536 238.46928 136.68536"></polygon>
                    <polygon id="Fill-51" fill="#C7C8CA" points="246.75252 123.47776 240.6866 127.04188 243.02852 130.60656"></polygon>
                    <polygon id="Fill-52" fill="#E0E1E2" points="236.79544 132.97536 240.6866 127.04216 243.02852 130.60656"></polygon>
                    <polygon id="Fill-53" fill="#FFFFFF" points="253.93088 121.75044 253.93088 126.49448 246.75252 123.47776"></polygon>
                    <polygon id="Fill-54" fill="#95979A" points="247.07172 156.99404 253.93116 158.24956 253.93116 154.56392"></polygon>
                    <polygon id="Fill-55" fill="#E4E5E6" points="260.79032 156.99404 253.93116 158.24956 253.93116 154.56392"></polygon>
                    <polygon id="Fill-56" fill="#EDEDEE" points="30.1952 129.55516 35.00224 130.60656 36.45404 140.39536"></polygon>
                    <polygon id="Fill-57" fill="#D1D3D4" points="30.1952 151.23584 35.64064 149.75884 36.45404 140.39536"></polygon>
                    <polygon id="Fill-58" fill="#808285" points="24.099824 151.23584 24.099824 154.5642 30.1952 151.23584"></polygon>
                    <polygon id="Fill-59" fill="#B9BABC" points="24.099824 126.64148 24.099824 129.55516 30.1952 129.55516"></polygon>
                    <polygon id="Fill-60" fill="#F6F6F6" points="31.27824 123.47776 24.09988 126.49448 24.09988 126.64148 30.1952 129.55516 35.00224 130.60656"></polygon>
                    <polygon id="Fill-61" fill="#C0C2C4" points="36.45404 140.39536 42.34412 140.39536 35.00224 130.60656"></polygon>
                    <polygon id="Fill-62" fill="#F1F2F2" points="35.64064 149.75884 42.34384 140.39564 36.45404 140.39564"></polygon>
                    <polygon id="Fill-63" fill="#B3B5B8" points="30.1952 151.23584 24.099824 154.5642 24.099824 154.70756 30.95904 156.99404 35.64092 149.75884"></polygon>
                    <polygon id="Fill-64" fill="#B3B5B8" points="42.34412 140.39536 41.2356 147.51688 35.64092 149.75856"></polygon>
                    <polygon id="Fill-65" fill="#888A8C" points="30.95904 156.99404 37.34416 152.9444 35.64064 149.75856"></polygon>
                    <polygon id="Fill-66" fill="#D3D5D6" points="41.23532 147.51688 37.34416 152.94468 35.64064 149.75884"></polygon>
                    <polygon id="Fill-67" fill="#D3D5D6" points="42.34412 140.39536 41.2356 132.97536 39.56148 136.68536"></polygon>
                    <polygon id="Fill-68" fill="#EDEDEE" points="35.00224 130.60656 41.23532 132.97536 39.56148 136.68536"></polygon>
                    <polygon id="Fill-69" fill="#C7C8CA" points="31.27824 123.47776 37.34416 127.04188 35.00224 130.60656"></polygon>
                    <polygon id="Fill-70" fill="#E0E1E2" points="41.23532 132.97536 37.34416 127.04216 35.00224 130.60656"></polygon>
                    <polygon id="Fill-71" fill="#FFFFFF" points="24.099824 121.75044 24.099824 126.49448 31.27824 123.47776"></polygon>
                    <polygon id="Fill-72" fill="#F1F2F2" points="30.1952 129.55516 24.099824 129.55516 18.004504 129.55516 11.745664 140.39536 18.004504 151.23584 30.1952 151.23584 36.45404 140.39536"></polygon>
                    <polygon id="Fill-73" fill="#EDEDEE" points="18.004336 129.55516 13.197296 130.60656 11.745496 140.39536"></polygon>
                    <polygon id="Fill-74" fill="#D1D3D4" points="18.004336 151.23584 12.558896 149.75884 11.745496 140.39536"></polygon>
                    <polygon id="Fill-75" fill="#808285" points="24.099824 151.23584 24.099824 154.5642 18.004504 151.23584"></polygon>
                    <polygon id="Fill-76" fill="#DBDBDC" points="24.099824 126.64148 24.099824 129.55516 18.004504 129.55516"></polygon>
                    <polygon id="Fill-77" fill="#F6F6F6" points="16.921408 123.47776 24.099768 126.49448 24.099768 126.64148 18.004448 129.55516 13.197408 130.60656"></polygon>
                    <polygon id="Fill-78" fill="#C0C2C4" points="11.745636 140.39536 5.855556 140.39536 13.197436 130.60656"></polygon>
                    <polygon id="Fill-79" fill="#F1F2F2" points="12.55898 149.75884 5.85578 140.39564 11.74558 140.39564"></polygon>
                    <polygon id="Fill-80" fill="#B3B5B8" points="18.004476 151.23584 24.099796 154.5642 24.099796 154.70756 17.240636 156.99404 12.558756 149.75884"></polygon>
                    <polygon id="Fill-81" fill="#B3B5B8" points="5.855668 140.39536 6.964188 147.51688 12.558868 149.75856"></polygon>
                    <polygon id="Fill-82" fill="#888A8C" points="17.240636 156.99404 10.855516 152.9444 12.559036 149.75856"></polygon>
                    <polygon id="Fill-83" fill="#D3D5D6" points="6.9643 147.51688 10.85546 152.94468 12.55898 149.75884"></polygon>
                    <polygon id="Fill-84" fill="#D3D5D6" points="5.855668 140.39536 6.964188 132.97536 8.638308 136.68536"></polygon>
                    <polygon id="Fill-85" fill="#EDEDEE" points="13.197324 130.60656 6.964244 132.97536 8.638084 136.68536"></polygon>
                    <polygon id="Fill-86" fill="#C7C8CA" points="16.921408 123.47776 10.855488 127.04188 13.197408 130.60656"></polygon>
                    <polygon id="Fill-87" fill="#E0E1E2" points="6.9643 132.97536 10.85546 127.04216 13.19738 130.60656"></polygon>
                    <polygon id="Fill-88" fill="#FFFFFF" points="24.099824 121.75044 24.099824 126.49448 16.921464 123.47776"></polygon>
                    <polygon id="Fill-89" fill="#95979A" points="17.240636 156.99404 24.099796 158.24956 24.099796 154.56392"></polygon>
                    <polygon id="Fill-90" fill="#E4E5E6" points="30.95904 156.99404 24.099824 158.24956 24.099824 154.56392"></polygon>
                </g>
            </g>
        </g>
    </g>
</svg>