<?xml version="1.0" encoding="UTF-8"?>
<svg width="450px" height="450px" viewBox="0 0 450 450" version="1.1" xmlns="http://www.w3.org/2000/svg" xmlns:xlink="http://www.w3.org/1999/xlink">
    <!-- Generator: Sketch 62 (91390) - https://sketch.com -->
    <title>Circular 15 Logo</title>
    <desc>Created with Sketch.</desc>
    <g id="Circular-15" stroke="none" stroke-width="1" fill="none" fill-rule="evenodd">
        <g transform="translate(-458.000000, -186.000000)" id="Circular-15-Logo">
            <g transform="translate(458.000000, 186.000000)">
                <polygon id="Fill-1" fill="#000000" points="168.27435 297.4419 168.27435 188.30835 146.1132 205.03395 131.2695 179.10945 171.82845 149.42205 201.0978 149.42205 201.0978 297.4419"></polygon>
                <path d="M307.9305,248.3109 C307.9305,257.09175 306.7083,264.7224 304.27155,271.2033 C301.8312,277.68465 298.4868,283.1202 294.2361,287.51085 C289.98315,291.90105 285.00165,295.1775 279.288,297.33705 C273.5712,299.49615 267.5088,300.5775 261.09945,300.5775 C249.8094,300.5775 239.98365,297.4419 231.62085,291.1698 C223.25805,284.8977 217.7505,275.4207 215.1045,262.73655 L243.74655,253.74645 C244.86075,258.62715 246.77775,262.80855 249.4962,266.29065 C252.2142,269.7759 255.8007,271.5174 260.2629,271.5174 C265.41765,271.5174 269.2854,269.3943 271.86615,265.1409 C274.44375,260.89065 275.7339,255.62835 275.7339,249.3558 C275.7339,241.69275 273.60765,236.04795 269.3574,232.4214 C265.104,228.79935 259.9821,226.98585 253.9908,226.98585 C249.669,226.98585 244.6875,227.64915 239.04225,228.9717 C233.3979,230.2983 228.5532,231.79455 224.51265,233.4672 L227.6487,149.42205 L302.70375,149.42205 L302.70375,178.48215 L255.66345,178.48215 L254.6181,203.9886 C256.29075,203.29245 258.20505,202.734 260.3673,202.31595 C262.52685,201.89745 264.3723,201.6891 265.9077,201.6891 C272.59785,201.6891 278.55675,202.806 283.78305,205.03395 C289.0098,207.26505 293.4,210.4011 296.9541,214.44165 C300.5082,218.48625 303.22665,223.36335 305.1081,229.07655 C306.9891,234.79335 307.9305,241.20225 307.9305,248.3109" id="Fill-3" fill="#000000"></path>
                <path d="M140.65335,55.53135 L140.6106,55.4517 C139.43745,53.262 137.24775,53.0001 134.65935,54.38655 L129.6018,57.09465 L133.18515,63.78525 L138.28185,61.05465 C140.91075,59.64705 141.741,57.56265 140.65335,55.53135" id="Fill-4" fill="#000000"></path>
                <polygon id="Fill-5" fill="#000000" points="339.93315 73.1394 331.66305 78.15645 337.3191 82.4355"></polygon>
                <path d="M142.22025,380.53215 L137.21535,377.82765 L133.6383,384.4485 L138.6828,387.17415 C141.2838,388.5795 143.4627,388.12725 144.549,386.11755 L144.5913,386.03835 C145.7622,383.87115 144.7821,381.9159 142.22025,380.53215" id="Fill-6" fill="#000000"></path>
                <polygon id="Fill-7" fill="#000000" points="343.36125 370.7037 335.11365 365.84055 337.8249 375.0408"></polygon>
                <path d="M376.2027,322.8156 L376.1289,322.76475 C374.10345,321.36165 372.0519,322.1199 370.3941,324.51345 L367.1541,329.18985 L373.34025,333.4752 L376.60545,328.76235 C378.28935,326.3319 378.08055,324.11655 376.2027,322.8156" id="Fill-8" fill="#000000"></path>
                <path d="M392.50845,334.43955 L381.10545,334.22355 L378.93735,337.3533 L386.7435,342.76095 L381.7944,349.90425 L356.01885,332.0478 L364.46265,319.86 C367.19235,315.9198 370.11105,313.9092 373.07745,313.40295 C375.5961,312.91335 378.12015,313.5177 380.6613,315.2781 L380.73465,315.32895 C384.67485,318.05865 385.83495,321.9687 384.97815,326.11635 L398.22255,326.19105 L392.50845,334.43955 Z M354.7584,377.48025 L349.5069,374.48145 L339.98625,381.9402 L341.676,387.72945 L334.4823,393.3639 L325.51605,360.27135 L332.11035,355.1058 L362.0934,371.7351 L354.7584,377.48025 Z M288.30825,415.058355 L276.8058,385.8885 L284.89005,382.7007 L293.5989,404.78625 L307.72575,399.21615 L310.5189,406.300005 L288.30825,415.058355 Z M243.83385,424.731555 C234.9612,425.582055 228.9555,421.613055 228.01995,411.847605 L226.34055,394.32375 L235.12455,393.48225 L236.78685,410.827455 C237.2184,415.331055 239.69745,417.253005 243.1755,416.920455 C246.65355,416.587005 248.7312,414.317655 248.31225,409.948155 L246.6288,392.37975 L255.41325,391.5378 L257.07105,408.838905 C258.03675,418.916205 252.7074,423.881955 243.83385,424.731555 L243.83385,424.731555 Z M168.9732,357.71715 C151.8354,350.4681 136.4274,340.074 123.1767,326.8233 C109.92555,313.5726 99.53145,298.1646 92.28285,281.0268 C85.88655,265.90365 82.19385,249.9408 81.25065,233.4672 L81.2511,233.4672 C81.21105,232.767 81.17505,232.0659 81.14445,231.36345 C81.1125,230.62905 81.0837,229.8933 81.063,229.1562 C81.05175,228.7674 81.04455,228.37815 81.03645,227.98845 C81.0162,226.9953 81,226.00215 81,225.0063 L81,225 C81,205.52445 84.7962,186.67485 92.28285,168.97365 C99.53145,151.83585 109.92555,136.42785 123.1767,123.1767 C136.4274,109.926 151.8354,99.53145 168.9732,92.28285 C186.6744,84.7962 205.524,81 225,81 C244.4751,81 263.3256,84.7962 281.02635,92.28285 C298.16415,99.53145 313.5726,109.926 326.82285,123.1767 C340.074,136.42785 350.4681,151.83585 357.71715,168.97365 C365.20335,186.67485 369,205.52445 369,225 C369,225.9999 368.98335,226.9971 368.96355,227.9934 C368.955,228.37995 368.94825,228.7665 368.93655,229.15215 C368.91585,229.89195 368.88705,230.62995 368.8551,231.3675 C368.8245,232.06725 368.78895,232.76655 368.7489,233.46405 C367.80615,249.939 364.11345,265.90275 357.71715,281.0268 C350.4681,298.1646 340.074,313.5726 326.82285,326.8233 C313.57215,340.074 298.16415,350.4681 281.02635,357.71715 C263.3256,365.2038 244.4751,369.00045 225,369.00045 C205.524,369.00045 186.6744,365.2038 168.9732,357.71715 L168.9732,357.71715 Z M187.9029,414.155205 C191.10555,414.815355 193.29975,413.713305 195.60465,411.856155 L201.0681,417.739905 C197.34885,421.135155 192.83805,423.269055 186.0381,421.865505 C177.2631,420.055155 171.585,411.885855 173.4768,402.71625 L173.4948,402.6285 C175.3416,393.6789 183.67785,388.08045 192.9789,389.99925 C199.25235,391.2939 202.7457,394.75935 204.687,399.0933 L197.25885,402.7293 C195.957,400.1733 194.2281,398.3535 191.28915,397.7469 C186.98895,396.8595 183.21075,399.87675 182.28735,404.3511 L182.26935,404.4393 C181.3185,409.045455 183.60405,413.267805 187.9029,414.155205 L187.9029,414.155205 Z M152.532,389.718 L152.48925,389.79675 C150.2109,394.01325 146.4525,395.5977 142.236,395.2035 L143.622,408.375405 L134.79435,403.6059 L133.7517,392.24925 L130.4019,390.4389 L125.8875,398.79405 L118.24245,394.66305 L133.1469,367.0758 L146.19195,374.12415 C150.40845,376.40205 152.72865,379.08135 153.5589,381.9735 C154.323,384.4233 154.00035,386.99865 152.532,389.718 L152.532,389.718 Z M94.12785,376.33545 L87.6429,370.4841 L108.64665,347.20425 L115.13115,353.05515 L94.12785,376.33545 Z M80.2116,325.0881 C77.75235,321.4521 72.9414,320.9751 69.1569,323.5347 L69.0822,323.58465 C65.18655,326.2194 63.8757,330.83775 66.3354,334.4733 C68.16735,337.1823 70.5078,337.9239 73.45395,338.20245 L73.25955,346.22955 C68.22675,346.0644 63.5076,344.44395 59.61735,338.69295 C54.5985,331.272 56.23515,321.4593 63.98955,316.2141 L64.06335,316.16415 C71.63235,311.04495 81.5094,312.8544 86.82885,320.7204 C90.41805,326.02635 90.49995,330.94485 88.86555,335.40345 L81.00855,332.8227 C81.8604,330.084 81.8928,327.57345 80.2116,325.0881 L80.2116,325.0881 Z M60.52725,109.0179 C64.1979,103.70205 68.7897,101.82195 73.5786,101.72475 L74.0313,110.05245 C71.1459,110.2563 68.7762,111.14505 67.05585,113.6358 C64.5408,117.279 65.8548,121.97385 69.64695,124.59285 L69.7212,124.64415 C73.6245,127.33875 78.444,126.87885 80.9595,123.23565 C82.8333,120.52215 82.6731,118.05075 81.85545,115.1802 L89.46945,112.4226 C91.1583,117.2115 91.3644,122.2398 87.3855,128.00205 C82.2519,135.4374 72.43155,137.49525 64.66185,132.13035 L64.5876,132.0795 C57.00375,126.84285 55.0854,116.8992 60.52725,109.0179 L60.52725,109.0179 Z M94.68585,72.3663 L115.75935,95.94585 L109.19025,101.81655 L88.1172,78.2361 L94.68585,72.3663 Z M131.47425,47.4831 C135.7353,45.2007 139.2795,44.7381 142.17435,45.6462 C144.6606,46.36485 146.6487,48.06765 148.11975,50.81535 L148.1625,50.89455 C150.4449,55.15605 149.6889,59.19885 147.0141,62.5275 L158.868,68.68215 L149.9481,73.4598 L139.81185,68.02515 L136.4274,69.8373 L140.949,78.27975 L133.2234,82.4175 L118.29375,54.5427 L131.47425,47.4831 Z M185.8743,27.58365 C192.19815,26.26335 196.821,28.06695 200.3571,31.2975 L194.94405,37.64295 C192.7134,35.8011 190.3833,34.81065 187.4205,35.4294 C183.08655,36.3348 180.8019,40.64265 181.7442,45.15345 L181.76265,45.24165 C182.7324,49.8852 186.54075,52.87455 190.87515,51.9687 C194.103,51.29505 195.6906,49.39425 197.07705,46.7505 L204.49395,50.00175 C202.41585,54.63495 199.0989,58.42035 192.24405,59.8518 C183.39975,61.69905 174.86685,56.4201 172.9368,47.17755 L172.9179,47.0889 C171.03375,38.06775 176.499,29.54205 185.8743,27.58365 L185.8743,27.58365 Z M226.3239,41.51385 L227.8782,23.82795 L236.74365,24.6069 L235.2051,42.11325 C234.8055,46.6578 236.91105,49.01985 240.4206,49.32855 C243.93105,49.6368 246.40785,47.76885 246.7953,43.3584 L248.3541,25.6275 L257.21955,26.4069 L255.6846,43.8678 C254.7909,54.03825 248.59395,57.9834 239.6385,57.1959 C230.68305,56.40885 225.45765,51.3693 226.3239,41.51385 L226.3239,41.51385 Z M286.35795,33.6618 L294.5412,36.801 L285.966,59.157 L300.26565,64.64115 L297.5148,71.8119 L275.03235,63.18855 L286.35795,33.6618 Z M342.88695,62.3457 L349.62435,67.4424 L341.14635,100.9656 L333.65205,95.29605 L335.22165,89.4024 L325.49355,82.04355 L320.28525,85.185 L312.93495,79.62435 L342.88695,62.3457 Z M379.6398,96.44265 L388.4103,108.55305 C391.2453,112.4676 392.1813,115.91685 391.671,118.90845 C391.2939,121.46805 389.87415,123.6672 387.3501,125.496 L387.27675,125.5491 C383.3622,128.38455 379.25415,128.18025 375.5952,125.97705 L371.09295,138.5523 L365.1579,130.35645 L369.17775,119.58075 L366.92595,116.47125 L359.16975,122.08815 L354.02895,114.9903 L379.6398,96.44265 Z M449.84205,233.46495 C449.88885,232.2072 449.92215,230.9463 449.9478,229.6836 C449.95365,229.401 449.95905,229.11795 449.964,228.83535 C449.9856,227.55915 450,226.28115 450,225 C450,100.7361 349.2639,0 225,0 C100.7361,0 0.000135,100.7361 0.000135,225 C0.000135,226.28295 0.014985,227.56275 0.036135,228.84075 C0.041085,229.11975 0.046035,229.39875 0.052335,229.67775 C2.542635,351.78165 102.29895,450.000405 225,450.000405 C346.4289,450.000405 445.3902,353.80755 449.84205,233.4672 L449.84205,233.46495 Z" id="Fill-9" fill="#000000"></path>
                <path d="M381.6711,118.7325 L381.74445,118.6794 C383.7564,117.2223 383.7213,115.0164 381.99915,112.6386 L378.6336,107.9919 L372.4875,112.44285 L375.8787,117.12645 C377.6274,119.5407 379.80495,120.0834 381.6711,118.7325" id="Fill-10" fill="#000000"></path>
                <polygon id="Fill-11" fill="#EDEDEE" points="48.528 208.21365 56.2536 209.9034 58.58685 225.6354"></polygon>
                <polygon id="Fill-12" fill="#D1D3D4" points="48.528 243.0576 57.2796 240.68385 58.58685 225.6354"></polygon>
                <polygon id="Fill-13" fill="#808285" points="38.731905 243.0576 38.731905 248.40675 48.528 243.0576"></polygon>
                <polygon id="Fill-14" fill="#B9BABC" points="38.731905 203.53095 38.731905 208.21365 48.528 208.21365"></polygon>
                <polygon id="Fill-15" fill="#F6F6F6" points="50.2686 198.4464 38.731995 203.2947 38.731995 203.53095 48.528 208.21365 56.2536 209.9034"></polygon>
                <polygon id="Fill-16" fill="#C0C2C4" points="58.58685 225.6354 68.05305 225.6354 56.2536 209.9034"></polygon>
                <polygon id="Fill-17" fill="#F1F2F2" points="57.2796 240.6834 68.0526 225.6354 58.58685 225.6354"></polygon>
                <polygon id="Fill-18" fill="#B3B5B8" points="48.528 243.0576 38.731905 248.40675 38.731905 248.63715 49.7556 252.31185 57.28005 240.68385"></polygon>
                <polygon id="Fill-19" fill="#B3B5B8" points="68.05305 225.6354 66.2715 237.0807 57.28005 240.6834"></polygon>
                <polygon id="Fill-20" fill="#888A8C" points="49.7556 252.31185 60.0174 245.8035 57.2796 240.6834"></polygon>
                <polygon id="Fill-21" fill="#D3D5D6" points="66.27105 237.08025 60.0174 245.8035 57.2796 240.6834"></polygon>
                <polygon id="Fill-22" fill="#D3D5D6" points="68.05305 225.6354 66.2715 213.7104 63.58095 219.6729"></polygon>
                <polygon id="Fill-23" fill="#EDEDEE" points="56.2536 209.9034 66.27105 213.7104 63.58095 219.6729"></polygon>
                <polygon id="Fill-24" fill="#C7C8CA" points="50.2686 198.4464 60.0174 204.17445 56.2536 209.9034"></polygon>
                <polygon id="Fill-25" fill="#E0E1E2" points="66.27105 213.7104 60.0174 204.1749 56.2536 209.9034"></polygon>
                <polygon id="Fill-26" fill="#FFFFFF" points="38.731905 195.67035 38.731905 203.2947 50.2686 198.4464"></polygon>
                <polygon id="Fill-27" fill="#F1F2F2" points="48.528 208.21365 38.731905 208.21365 28.935855 208.21365 18.877005 225.6354 28.935855 243.0576 48.528 243.0576 58.58685 225.6354"></polygon>
                <polygon id="Fill-28" fill="#EDEDEE" points="28.935585 208.21365 21.209985 209.9034 18.876735 225.6354"></polygon>
                <polygon id="Fill-29" fill="#D1D3D4" points="28.935585 243.0576 20.183985 240.68385 18.876735 225.6354"></polygon>
                <polygon id="Fill-30" fill="#808285" points="38.731905 243.0576 38.731905 248.40675 28.935855 243.0576"></polygon>
                <polygon id="Fill-31" fill="#DBDBDC" points="38.731905 203.53095 38.731905 208.21365 28.935855 208.21365"></polygon>
                <polygon id="Fill-32" fill="#F6F6F6" points="27.195165 198.4464 38.731815 203.2947 38.731815 203.53095 28.935765 208.21365 21.210165 209.9034"></polygon>
                <polygon id="Fill-33" fill="#C0C2C4" points="18.87696 225.6354 9.41076 225.6354 21.21021 209.9034"></polygon>
                <polygon id="Fill-34" fill="#F1F2F2" points="20.18412 240.6834 9.41112 225.6354 18.87687 225.6354"></polygon>
                <polygon id="Fill-35" fill="#B3B5B8" points="28.93581 243.0576 38.73186 248.40675 38.73186 248.63715 27.70821 252.31185 20.18376 240.68385"></polygon>
                <polygon id="Fill-36" fill="#B3B5B8" points="9.410895 225.6354 11.192445 237.0807 20.183895 240.6834"></polygon>
                <polygon id="Fill-37" fill="#888A8C" points="27.70821 252.31185 17.44641 245.8035 20.18421 240.6834"></polygon>
                <polygon id="Fill-38" fill="#D3D5D6" points="11.19267 237.08025 17.44632 245.8035 20.18412 240.6834"></polygon>
                <polygon id="Fill-39" fill="#D3D5D6" points="9.410895 225.6354 11.192445 213.7104 13.882995 219.6729"></polygon>
                <polygon id="Fill-40" fill="#EDEDEE" points="21.21003 209.9034 11.19258 213.7104 13.88268 219.6729"></polygon>
                <polygon id="Fill-41" fill="#C7C8CA" points="27.195165 198.4464 17.446365 204.17445 21.210165 209.9034"></polygon>
                <polygon id="Fill-42" fill="#E0E1E2" points="11.19267 213.7104 17.44632 204.1749 21.21012 209.9034"></polygon>
                <polygon id="Fill-43" fill="#FFFFFF" points="38.731905 195.67035 38.731905 203.2947 27.195255 198.4464"></polygon>
                <polygon id="Fill-44" fill="#95979A" points="27.70821 252.31185 38.73186 254.32965 38.73186 248.4063"></polygon>
                <polygon id="Fill-45" fill="#E4E5E6" points="49.7556 252.31185 38.731905 254.32965 38.731905 248.4063"></polygon>
                <polygon id="Fill-46" fill="#EDEDEE" points="417.8997 208.21365 425.6253 209.9034 427.95855 225.6354"></polygon>
                <polygon id="Fill-47" fill="#D1D3D4" points="417.8997 243.0576 426.65085 240.68385 427.95855 225.6354"></polygon>
                <polygon id="Fill-48" fill="#808285" points="408.1032 243.0576 408.1032 248.40675 417.8997 243.0576"></polygon>
                <polygon id="Fill-49" fill="#B9BABC" points="408.1032 203.53095 408.1032 208.21365 417.8997 208.21365"></polygon>
                <polygon id="Fill-50" fill="#F6F6F6" points="419.63985 198.4464 408.1032 203.2947 408.1032 203.53095 417.8997 208.21365 425.6253 209.9034"></polygon>
                <polygon id="Fill-51" fill="#C0C2C4" points="427.95855 225.6354 437.4243 225.6354 425.6253 209.9034"></polygon>
                <polygon id="Fill-52" fill="#F1F2F2" points="426.65085 240.6834 437.42385 225.6354 427.9581 225.6354"></polygon>
                <polygon id="Fill-53" fill="#B3B5B8" points="417.8997 243.0576 408.1032 248.40675 408.1032 248.63715 419.1273 252.31185 426.6513 240.68385"></polygon>
                <polygon id="Fill-54" fill="#B3B5B8" points="437.4243 225.6354 435.64275 237.0807 426.6513 240.6834"></polygon>
                <polygon id="Fill-55" fill="#888A8C" points="419.1273 252.31185 429.3891 245.8035 426.6513 240.6834"></polygon>
                <polygon id="Fill-56" fill="#D3D5D6" points="435.64275 237.08025 429.3891 245.8035 426.6513 240.6834"></polygon>
                <polygon id="Fill-57" fill="#D3D5D6" points="437.4243 225.6354 435.64275 213.7104 432.9522 219.6729"></polygon>
                <polygon id="Fill-58" fill="#EDEDEE" points="425.6253 209.9034 435.64275 213.7104 432.9522 219.6729"></polygon>
                <polygon id="Fill-59" fill="#C7C8CA" points="419.63985 198.4464 429.38865 204.17445 425.6253 209.9034"></polygon>
                <polygon id="Fill-60" fill="#E0E1E2" points="435.64275 213.7104 429.3891 204.1749 425.6253 209.9034"></polygon>
                <polygon id="Fill-61" fill="#FFFFFF" points="408.1032 195.67035 408.1032 203.2947 419.63985 198.4464"></polygon>
                <polygon id="Fill-62" fill="#F1F2F2" points="417.8997 208.21365 408.1032 208.21365 398.30715 208.21365 388.2483 225.6354 398.30715 243.0576 417.8997 243.0576 427.95855 225.6354"></polygon>
                <polygon id="Fill-63" fill="#EDEDEE" points="398.30715 208.21365 390.58155 209.9034 388.2483 225.6354"></polygon>
                <polygon id="Fill-64" fill="#D1D3D4" points="398.30715 243.0576 389.55555 240.68385 388.2483 225.6354"></polygon>
                <polygon id="Fill-65" fill="#808285" points="408.1032 243.0576 408.1032 248.40675 398.3067 243.0576"></polygon>
                <polygon id="Fill-66" fill="#DBDBDC" points="408.1032 203.53095 408.1032 208.21365 398.3067 208.21365"></polygon>
                <polygon id="Fill-67" fill="#F6F6F6" points="396.56655 198.4464 408.10365 203.2947 408.10365 203.53095 398.30715 208.21365 390.58155 209.9034"></polygon>
                <polygon id="Fill-68" fill="#C0C2C4" points="388.2483 225.6354 378.7821 225.6354 390.58155 209.9034"></polygon>
                <polygon id="Fill-69" fill="#F1F2F2" points="389.55555 240.6834 378.78255 225.6354 388.24875 225.6354"></polygon>
                <polygon id="Fill-70" fill="#B3B5B8" points="398.30715 243.0576 408.10365 248.40675 408.10365 248.63715 397.07955 252.31185 389.55555 240.68385"></polygon>
                <polygon id="Fill-71" fill="#B3B5B8" points="378.7821 225.6354 380.5641 237.0807 389.5551 240.6834"></polygon>
                <polygon id="Fill-72" fill="#888A8C" points="397.07955 252.31185 386.8182 245.8035 389.5551 240.6834"></polygon>
                <polygon id="Fill-73" fill="#D3D5D6" points="380.5641 237.08025 386.81775 245.8035 389.5551 240.6834"></polygon>
                <polygon id="Fill-74" fill="#D3D5D6" points="378.7821 225.6354 380.5641 213.7104 383.2542 219.6729"></polygon>
                <polygon id="Fill-75" fill="#EDEDEE" points="390.58155 209.9034 380.5641 213.7104 383.2542 219.6729"></polygon>
                <polygon id="Fill-76" fill="#C7C8CA" points="396.56655 198.4464 386.8182 204.17445 390.58155 209.9034"></polygon>
                <polygon id="Fill-77" fill="#E0E1E2" points="380.5641 213.7104 386.81775 204.1749 390.58155 209.9034"></polygon>
                <polygon id="Fill-78" fill="#FFFFFF" points="408.1032 195.67035 408.1032 203.2947 396.5661 198.4464"></polygon>
                <polygon id="Fill-79" fill="#95979A" points="397.07955 252.31185 408.1032 254.32965 408.1032 248.4063"></polygon>
                <polygon id="Fill-80" fill="#E4E5E6" points="419.1273 252.31185 408.10365 254.32965 408.10365 248.4063"></polygon>
            </g>
        </g>
    </g>
</svg>